<?xml version="1.0" encoding="UTF-8" standalone="no"?>
<!-- Created with Inkscape (http://www.inkscape.org/) -->

<svg
   width="512"
   height="512"
   viewBox="0 0 135.46666 135.46667"
   version="1.1"
   id="svg5"
   xml:space="preserve"
   inkscape:version="1.2 (dc2aedaf03, 2022-05-15)"
   sodipodi:docname="Logo.svg"
   inkscape:export-filename="..\..\..\..\..\Galaxy\WhiteLogo.png"
   inkscape:export-xdpi="96"
   inkscape:export-ydpi="96"
   xmlns:inkscape="http://www.inkscape.org/namespaces/inkscape"
   xmlns:sodipodi="http://sodipodi.sourceforge.net/DTD/sodipodi-0.dtd"
   xmlns="http://www.w3.org/2000/svg"
   xmlns:svg="http://www.w3.org/2000/svg"><sodipodi:namedview
     id="namedview7"
     pagecolor="#ffffff"
     bordercolor="#000000"
     borderopacity="0.25"
     inkscape:showpageshadow="2"
     inkscape:pageopacity="0.0"
     inkscape:pagecheckerboard="0"
     inkscape:deskcolor="#d1d1d1"
     inkscape:document-units="mm"
     showgrid="false"
     inkscape:zoom="1.28"
     inkscape:cx="293.75"
     inkscape:cy="223.4375"
     inkscape:window-width="1920"
     inkscape:window-height="999"
     inkscape:window-x="-8"
     inkscape:window-y="-8"
     inkscape:window-maximized="1"
     inkscape:current-layer="layer1"
     showguides="true"><inkscape:grid
       type="xygrid"
       id="grid132"
       originx="0"
       originy="0" /></sodipodi:namedview><defs
     id="defs2" /><g
     inkscape:label="Layer 1"
     inkscape:groupmode="layer"
     id="layer1"><g
       id="g2501-90-8-2"
       transform="matrix(0.13497563,0.23378465,-0.23378465,0.13497563,-124.64351,204.1822)"
       style="fill:#000000"><path
         sodipodi:type="star"
         style="fill:#000000;stroke-width:9.52399;paint-order:stroke markers fill"
         id="path348-3-7-0-8-5-9"
         inkscape:flatsided="true"
         sodipodi:sides="6"
         sodipodi:cx="-481.58243"
         sodipodi:cy="-117.49451"
         sodipodi:r1="164.14297"
         sodipodi:r2="142.15199"
         sodipodi:arg1="0.52359878"
         sodipodi:arg2="1.0471976"
         inkscape:rounded="0"
         inkscape:randomized="0"
         d="m -339.43044,-35.423019 -142.15199,82.071487 -142.15198,-82.071488 0,-164.14297 142.15198,-82.07149 142.15199,82.07149 z"
         inkscape:transform-center-x="-4.0387321e-06"
         inkscape:transform-center-y="-1.2934187e-05"
         transform="matrix(0.29145122,-0.5048083,0.5048083,0.29145122,118.22843,-1078.7599)" /><path
         id="path348-4-0-5-2-9-3-4-6-9"
         style="fill:#000000;stroke-width:10.0498;paint-order:stroke markers fill"
         inkscape:transform-center-x="43.301205"
         inkscape:transform-center-y="0.000115"
         d="m -231.71329,-705.61154 149.99975,86.60226 11.915066,-6.87917 14.065898,-8.12095 -2.6e-4,-4.4e-4 11.91507,-6.87917 -149.999754,-86.60226 -1.3e-4,-173.20516 -25.98097,15.00011 -1.9e-4,7.1e-4 -11.91462,6.87891 z" /><path
         id="path348-4-0-5-2-9-3-4-7-6-8"
         style="fill:#000000;stroke-width:10.0498;paint-order:stroke markers fill"
         inkscape:transform-center-x="-21.650727"
         inkscape:transform-center-y="-5.8012799"
         d="m -14.251986,-657.61519 149.999616,-86.60245 v -13.75834 -16.24191 l -5.2e-4,3e-5 v -13.75837 l -149.999616,86.60248 -150.000154,-86.60246 1e-5,30.00024 4.8e-4,5.1e-4 2e-5,13.75781 z" /><path
         id="path348-4-0-5-2-9-3-4-5-7-1"
         style="fill:#000000;stroke-width:10.0498;paint-order:stroke markers fill"
         inkscape:transform-center-x="-21.650722"
         inkscape:transform-center-y="-5.8012881"
         d="m 135.99498,-821.94407 -1.2e-4,-173.20471 -11.91507,-6.87922 -14.0659,-8.1209 -2.3e-4,4e-4 -11.915096,-6.8791 1.27e-4,173.20471 -149.999994,86.60269 25.980972,15.00013 6.82e-4,-2e-4 11.914618,6.87892 z" /><path
         id="path348-4-0-5-2-9-3-4-0-4-4"
         style="fill:#000000;stroke-width:10.0498;paint-order:stroke markers fill"
         inkscape:transform-center-x="-21.650737"
         inkscape:transform-center-y="-5.8012969"
         d="m 68.805483,-1034.2044 -149.999742,-86.6023 -11.91507,6.8792 -14.065901,8.1209 2.6e-4,5e-4 -11.91507,6.8792 149.999749,86.6022 1.4e-4,173.20519 25.980964,-15.00011 1.89e-4,-7.1e-4 11.914621,-6.87891 z" /><path
         id="path348-4-0-5-2-9-3-4-56-3-1-0"
         style="fill:#000000;stroke-width:10.0498;paint-order:stroke markers fill"
         inkscape:transform-center-x="-21.650737"
         inkscape:transform-center-y="-5.8012935"
         d="m -148.59983,-1082.1468 -149.99963,86.60242 1e-5,13.75835 -1e-5,16.24189 5.2e-4,-10e-6 v 13.75834 l 149.99963,-86.60249 150.0001341,86.6025 2e-5,-30.00023 -5.2e-4,-5.2e-4 v -13.75782 z" /><path
         id="path348-4-0-5-2-9-3-4-56-6-2"
         style="fill:#000000;stroke-width:10.0498;paint-order:stroke markers fill"
         inkscape:transform-center-x="-21.650737"
         inkscape:transform-center-y="-5.8012935"
         d="m -298.81866,-917.85579 1e-4,173.20472 11.91509,6.87917 14.06588,8.12095 2.5e-4,-4.5e-4 11.91507,6.87917 -10e-5,-173.20473 149.99999,-86.60268 -25.98095,-15.00014 -7.1e-4,1.9e-4 -11.91462,-6.87891 z" /></g></g></svg>
